<?xml version="1.0" encoding="utf-8"?>
<!-- Generator: Adobe Illustrator 16.0.0, SVG Export Plug-In . SVG Version: 6.00 Build 0)  -->
<!DOCTYPE svg PUBLIC "-//W3C//DTD SVG 1.1//EN" "http://www.w3.org/Graphics/SVG/1.1/DTD/svg11.dtd">
<svg version="1.1" xmlns="http://www.w3.org/2000/svg" xmlns:xlink="http://www.w3.org/1999/xlink" x="0px" y="0px" width="480px" height="416px" viewBox="0 0 480 416" enable-background="new 0 0 480 416" xml:space="preserve">
  <polygon fill="#E30000" points="358.187,3.145 121.64,3.145 3.366,208.001 121.64,412.855 358.187,412.855 476.459,208.001 "/>
  <path fill="#FFF" d="M278.615,123.644l-0.836-0.195c-2.133-0.766-10.721-4.122-14.854-9.651 c-1.077-0.125-2.162-0.256-3.203-0.327c-6.87-0.459-13.582-1.771-20.232-1.771c-7.087,0-14.428,0.723-21.801,2.068 c-1.24,0.227-2.461,0.49-3.688,0.742c-4.497,4.784-11.604,8-13.553,8.819l-0.79,0.233c-22.652,4.014-49.799,46.898-66.754,76.058 c0.359,2.475,0.826,4.99,1.457,7.564c6.26,25.521,21.479,41.93,27.323,58.195c15.498,43.176,14.001,65.342,43.544,74.917 c11.043,3.573,22.94,5.525,35.336,5.525c15.051,0,29.362-2.879,42.315-8.057c27.065-10.819,26.154-31.539,39.4-74.946 c4.563-14.941,18.828-39.249,22.925-61.867C329.974,173.119,302.875,126.391,278.615,123.644z"/>
  <path fill="#FFF" d="M197.93,116.349c6.014-2.614,12.526-7.286,12.481-9.997c-0.021-1.202-2.092-3.392-7.861-5.603 c-4.723-1.81-11.882-2.767-20.707-2.767c-33.979,0-80.285,13.351-87.575,29.131c5.328,30.707,13.943,77.349,18.086,93.354 c1.931-3.196,4.453-7.634,6.928-11.983C136.478,178.241,168.416,122.073,197.93,116.349z"/>
  <path fill="#FFF" d="M279.903,116.341c29.969,3.909,59.487,58.334,75.383,87.642 c2.278,4.202,4.6,8.485,6.379,11.547c5.025-15.704,16.608-63.803,23.866-95.407c-6.058-13.908-45.563-23.521-78.259-23.521 c-13.062,0-23.888,1.56-30.476,4.395c-6.502,2.793-8.759,5.346-8.719,6.683C268.154,110.254,274.294,114.248,279.903,116.341z"/>
</svg>
