<?xml version="1.0" encoding="utf-8"?>
<!-- Generator: Adobe Illustrator 16.0.0, SVG Export Plug-In . SVG Version: 6.00 Build 0)  -->
<!DOCTYPE svg PUBLIC "-//W3C//DTD SVG 1.1//EN" "http://www.w3.org/Graphics/SVG/1.1/DTD/svg11.dtd">
<svg version="1.1" id="scout_1_" xmlns="http://www.w3.org/2000/svg" xmlns:xlink="http://www.w3.org/1999/xlink" x="0px" y="0px"
	 width="480px" height="416px" viewBox="0 0 480 416" enable-background="new 0 0 480 416" xml:space="preserve">
<polygon fill="#E30000" points="358.059,3.145 121.386,3.145 3.049,208.11 121.386,413.073 358.059,413.073 476.396,208.11 "/>
<polygon fill="#F04A4A" points="458.754,205.584 351.112,19.144 238.68,19.144 238.68,392.024 351.112,392.024 "/>
<path fill="#840000" d="M328.312,255.2c0,56.237-41.769,101.824-93.292,101.824
	c-51.527,0-93.3-45.586-93.3-101.824c0-56.243,41.773-101.837,93.3-101.837C286.542,153.363,328.312,198.957,328.312,255.2z"/>
<path fill="#7A4005" d="M328.236,253.044c0,56.237-41.77,101.824-93.296,101.824s-93.3-45.586-93.3-101.824
	c0-56.244,41.773-101.837,93.3-101.837S328.236,196.8,328.236,253.044z"/>
<path fill="#FFF" d="M256.202,357.885l-16.465-9.522c-0.564-0.283-1.433-0.283-2.012,0l-16.447,9.522
	c-0.572,0.427-1.009,1.006-1.009,1.729v19.066c0,0.724,0.423,1.448,1.009,1.729l16.462,9.523c0.564,0.282,1.433,0.282,2.012,0
	l16.451-9.523c0.568-0.427,1.009-1.005,1.009-1.729v-19.066C257.211,358.891,256.785,358.167,256.202,357.885z M238.691,354.202
	c-0.774,0-1.4-0.623-1.4-1.397s0.626-1.403,1.4-1.403c0.774,0,1.401,0.629,1.401,1.403S239.465,354.202,238.691,354.202z"/>
<g>
	<rect x="209" y="328.653" fill="none" width="59.479" height="67.271"/>
	<path fill="#E30000" d="M236.573,376.73l0.734,0.233c0.355,0.111,0.755,0.167,1.2,0.167c0.8,0,1.461-0.272,1.984-0.817
		c0.522-0.544,0.784-1.239,0.784-2.084c0-1.178-0.545-2.123-1.634-2.834c-0.312-0.2-0.567-0.4-0.767-0.6
		c-0.089-0.044-0.545-0.311-1.367-0.8c-0.312-0.2-0.689-0.489-1.134-0.867c-0.022-0.021-0.423-0.344-1.201-0.967
		c-0.978-0.755-1.545-1.3-1.7-1.634c-0.712-1.467-1.045-2.378-1-2.734l0.067-0.6l-0.067-0.767c-0.022-0.133,0.022-0.345,0.133-0.634
		c0.044-0.111,0.089-0.244,0.133-0.4c0.178-0.667,0.361-1.134,0.55-1.4c0.188-0.267,0.561-0.6,1.117-1
		c0.444-0.311,0.728-0.5,0.85-0.567c0.122-0.066,0.328-0.133,0.617-0.2c0.956-0.245,1.979-0.367,3.068-0.367
		c0.178,0,0.489,0.022,0.934,0.067c0.2,0.045,0.4,0.078,0.6,0.1h0.934c0.489,0,1.211,0.222,2.167,0.667
		c0.711,0.333,1.067,0.745,1.067,1.233c0,0.133-0.156,0.456-0.467,0.967c-0.022,0.067-0.1,0.467-0.233,1.201
		c-0.133,0.733-0.479,1.1-1.034,1.1c-0.245,0-0.667-0.222-1.267-0.667c-0.312-0.222-0.739-0.434-1.284-0.634
		c-0.545-0.2-0.939-0.3-1.184-0.3c-0.2,0.022-0.556,0.045-1.067,0.067c-0.356,0.022-0.673,0.184-0.951,0.483
		c-0.278,0.3-0.417,0.628-0.417,0.984c0,0.645,0.489,1.3,1.467,1.967c2.2,1.489,3.812,2.767,4.834,3.834
		c1.022,1.067,1.723,2.067,2.101,3c0.333,0.845,0.5,1.534,0.5,2.067c0,1.356-0.2,2.512-0.601,3.468c-0.312,0.733-0.778,1.4-1.4,2
		c-0.756,0.734-1.7,1.222-2.834,1.467c-0.4,0.088-1.334,0.133-2.801,0.133c-0.178-0.022-0.645-0.078-1.4-0.167
		c-1.089-0.134-1.823-0.267-2.201-0.4l-0.8-0.167c-0.845-0.178-1.373-0.361-1.584-0.55c-0.211-0.188-0.316-0.628-0.316-1.317
		c0-0.178,0.078-0.461,0.233-0.851c0.155-0.389,0.233-0.594,0.233-0.617l0.1-0.767c0.111-0.822,0.389-1.245,0.834-1.267
		c0.267-0.022,0.688,0.195,1.267,0.65C234.95,376.069,235.684,376.441,236.573,376.73z"/>
</g>
<path fill="#EAE1DA" d="M259.542,102.415c-6.874-0.459-13.589-1.773-20.243-1.773c-7.091,0-14.436,0.724-21.813,2.069
	c-53.032,9.653-96.108,41.549-83.373,93.466c6.263,25.532,21.491,41.954,27.337,58.226c15.507,43.199,14.009,65.377,43.568,74.957
	c11.049,3.575,22.952,5.528,35.354,5.528c15.058,0,29.378-2.88,42.337-8.061c27.081-10.825,26.168-31.556,39.421-74.986
	c4.862-15.917,20.731-42.458,23.604-66.272C351.691,136.232,294.267,104.741,259.542,102.415z"/>
<path fill="#DD8C4A" d="M231.604,157.69c0-20.192-5.185-39.025-14.132-54.977c-53.025,9.657-96.093,41.551-83.358,93.465
	c6.263,25.532,21.491,41.954,27.337,58.226c0.062,0.17,0.108,0.322,0.17,0.492C201.867,244.181,231.604,206.122,231.604,157.69z"/>
<path fill="#DD8C4A" d="M259.542,102.415c-0.101-0.007-0.199-0.02-0.3-0.027c-9.059,16.02-14.32,34.972-14.32,55.302
	c0,50.78,32.696,90.129,75.912,98.544c0.43-1.458,0.836-2.88,1.299-4.392c4.862-15.917,20.731-42.458,23.604-66.272
	C351.691,136.232,294.267,104.741,259.542,102.415z"/>
<path d="M259.998,296.293c0,5.26-10.905,15.716-16.172,15.716l0,0c-5.268,0-13.98-10.456-13.98-15.716l0,0
	c0-5.275,4.276-9.544,9.544-9.544h11.067C255.725,286.749,259.998,291.018,259.998,296.293L259.998,296.293z"/>
<path d="M201.842,208.587c0,8.799-7.127,15.927-15.926,15.927s-15.93-7.127-15.93-15.927
	c0-8.799,7.131-15.926,15.93-15.926S201.842,199.789,201.842,208.587z"/>
<path fill="#FFF" d="M190.308,201.967c0,3.654-2.967,6.621-6.621,6.621
	c-3.661,0-6.624-2.967-6.624-6.621c0-3.654,2.963-6.621,6.624-6.621C187.341,195.346,190.308,198.313,190.308,201.967z"/>
<path d="M315.938,208.587c0,8.799-7.127,15.927-15.926,15.927s-15.93-7.127-15.93-15.927
	c0-8.799,7.131-15.926,15.93-15.926S315.938,199.789,315.938,208.587z"/>
<path fill="#FFF" d="M304.401,201.967c0,3.654-2.963,6.621-6.618,6.621
	c-3.661,0-6.624-2.967-6.624-6.621c0-3.654,2.963-6.621,6.624-6.621C301.438,195.346,304.401,198.313,304.401,201.967z"/>
<path fill="#7A4005" d="M198.799,108.862c0,0,30.474-12.822,4.866-22.634S99.005,91.706,90.167,115.642
	c0,0,17.145,99.032,20.712,101.325C114.443,219.253,160.38,115.671,198.799,108.862z"/>
<path fill="#7A4005" d="M278.861,108.913c0,0-30.369-10.912-3.701-22.38c26.664-11.462,106.437-1.158,114.118,22.279
	c0,0-23.011,100.384-26.777,102.902C358.739,214.231,317.667,113.305,278.861,108.913z"/>
<path fill="#D86F6F" d="M234.939,321.705c0,0-3.524,10.355,9.985,10.355c13.506,0,8.159-10.355,8.159-10.355
	l-8.075-3.524L234.939,321.705z"/>
<path fill="#7A4005" d="M259.639,323.55c-3.042,0-5.528-0.97-7.804-1.856c-2.186-0.854-4.255-1.661-6.744-1.661
	c-0.021,0-0.047,0-0.072,0c-1.241,0.007-2.648,0.572-4.272,1.23c-3.296,1.328-7.392,2.985-12.602,0.756
	c-4.45-1.917-12.934-10.228-14.381-14.874c-0.304-0.977,0.243-2.015,1.22-2.319c0.991-0.303,2.019,0.247,2.319,1.219
	c1.024,3.292,8.502,10.93,12.309,12.569c3.777,1.621,6.682,0.452,9.747-0.786c1.899-0.767,3.69-1.49,5.644-1.501
	c3.111-0.126,5.746,0.962,8.184,1.914c3.086,1.205,5.749,2.25,9.656,1.136c5.688-1.61,10.634-11.168,12.493-14.769
	c0.471-0.912,1.596-1.266,2.496-0.796c0.909,0.47,1.267,1.588,0.796,2.497c-3.513,6.791-8.368,14.819-14.775,16.635
	C262.331,323.377,260.935,323.55,259.639,323.55z"/>
</svg>
