<?xml version="1.0" encoding="utf-8"?>
<!-- Generator: Adobe Illustrator 16.0.0, SVG Export Plug-In . SVG Version: 6.00 Build 0)  -->
<!DOCTYPE svg PUBLIC "-//W3C//DTD SVG 1.1//EN" "http://www.w3.org/Graphics/SVG/1.1/DTD/svg11.dtd">
<svg version="1.1" id="Layer_1" xmlns="http://www.w3.org/2000/svg" xmlns:xlink="http://www.w3.org/1999/xlink" x="0px" y="0px"
	 width="200px" height="200px" viewBox="0 0 200 200" enable-background="new 0 0 200 200" xml:space="preserve">
<g>
	<polygon fill="#D30000" stroke="#D80505" stroke-width="10" stroke-miterlimit="10" points="53.959,180.818 8,101.214 
		53.959,21.609 145.879,21.609 191.838,101.214 145.879,180.818 	"/>
	<polygon fill="#F44242" points="193.438,100.135 147.479,20.531 99.476,20.531 99.476,179.739 147.479,179.739 	"/>
	<path fill="#7A4005" d="M137.712,120.4c0,24.011-17.834,43.475-39.834,43.475c-22,0-39.835-19.464-39.835-43.475
		c0-24.016,17.835-43.482,39.835-43.482C119.878,76.918,137.712,96.385,137.712,120.4z"/>
	<g>
		<path fill="#DD8C4A" d="M96.453,79.424c0-8.577-2.221-16.548-6.027-23.211C67.782,60.333,44.422,78.29,54.828,96.119
			c5.658,9.695,9.177,17.913,11.672,24.86C83.544,117.335,96.453,100.123,96.453,79.424z"/>
		<path fill="#EAE1DA" d="M102.282,79.424c0-8.629,2.248-16.65,6.1-23.339c-2.901-0.488-5.802-0.757-8.643-0.757
			c-3.028,0-6.164,0.309-9.313,0.884c3.806,6.664,6.027,14.635,6.027,23.211c0,20.699-12.909,37.911-29.954,41.556
			c6.622,18.445,5.981,27.915,18.604,32.005c4.717,1.525,9.798,2.36,15.094,2.36c6.43,0,12.543-1.229,18.077-3.441
			c11.562-4.622,11.173-11.893,16.832-30.435C116.661,119.244,102.282,101.27,102.282,79.424z"/>
		<path fill="#DD8C4A" d="M108.382,56.085c-3.852,6.689-6.1,14.709-6.1,23.339c0,21.846,14.379,39.82,32.824,42.045
			c2.075-6.798,4.956-15.093,9.544-25.35C153.028,77.399,130.803,59.858,108.382,56.085z"/>
	</g>
	<path d="M108.576,138.865c0,2.246-4.655,6.711-6.904,6.711l0,0c-2.249,0-5.969-4.465-5.969-6.711l0,0
		c0-2.252,1.825-4.074,4.074-4.074h4.727C106.753,134.791,108.576,136.613,108.576,138.865L108.576,138.865z"/>
	<g>
		<circle cx="76.946" cy="101.418" r="6.801"/>
		<circle fill="#FFFFFF" cx="75.993" cy="98.591" r="2.827"/>
	</g>
	<g>
		<circle cx="125.661" cy="101.418" r="6.8"/>
		<circle fill="#FFFFFF" cx="124.708" cy="98.591" r="2.827"/>
	</g>
	<path fill="#7A4005" d="M82.447,58.837c0,0,13.012-5.474,2.077-9.663c-10.934-4.19-44.687,2.338-48.46,12.559
		c0,0,7.321,42.283,8.844,43.262C46.43,105.971,66.042,61.745,82.447,58.837z"/>
	<path fill="#7A4005" d="M116.631,58.86c0,0-12.967-4.659-1.58-9.556c11.385-4.894,45.444-0.495,48.724,9.512
		c0,0-9.823,42.861-11.433,43.936C150.735,103.827,133.2,60.735,116.631,58.86z"/>
	<path fill="#D86F6F" d="M97.877,149.716c0,0-1.505,4.421,4.263,4.421c5.767,0,3.484-4.421,3.484-4.421l-3.448-1.505L97.877,149.716
		z"/>
	<path fill="none" stroke="#7A4005" stroke-miterlimit="10" d="M89.592,143.264c0.518,1.67,3.932,5.099,5.696,5.859
		c2.983,1.278,4.978-0.903,6.888-0.912c2.931-0.019,4.519,2.212,7.83,1.273c2.597-0.736,4.66-4.462,5.82-6.704"/>
</g>
</svg>
