<?xml version="1.0" encoding="utf-8"?>
<!-- Generator: Adobe Illustrator 19.2.1, SVG Export Plug-In . SVG Version: 6.00 Build 0)  -->
<svg version="1.1" id="Layer_1" xmlns="http://www.w3.org/2000/svg" xmlns:xlink="http://www.w3.org/1999/xlink" x="0px" y="0px"
	 viewBox="0 0 51 40" style="enable-background:new 0 0 51 40;" xml:space="preserve">
<style type="text/css">
	.st0{fill:#D72D2A;}
	.st1{fill:#FFFFFF;}
</style>
<polygon class="st0" points="0,0 0,39.7 35.4,35.3 50.2,0 "/>
<g>
	<path class="st1" d="M24.6,7.2c2.8,3,5.1,6,6.6,8.1c0.5,0.7,1,1.4,1.3,1.8c0.5-1.4,1.7-6.4,2.4-9.6c-0.6-1.4-4.7-2.2-7.8-2.2
		c-1.2,0-2.3,0.1-3,0.3c-0.4,0.1-0.6,0.3-0.6,0.4C23.5,6.3,24.1,6.8,24.6,7.2L24.6,7.2z"/>
	<path class="st1" d="M16.2,7.1L16.2,7.1c0.7-0.3,1.3-0.8,1.3-1c0-0.1-0.2-0.3-0.8-0.6C15.1,4.9,10.6,5.4,8,6.7
		c-1,0.5-1.7,1-1.9,1.5c0.5,3,1.4,7.6,1.8,9.2C7.9,17.3,8,17.1,8,17C9.1,15,11.5,10.2,16.2,7.1z"/>
	<path class="st1" d="M30.6,15.7c-1.5-2-3.7-5.1-6.5-8C24,7.6,23.6,7.3,23.2,7c-0.3-0.1-0.5-0.1-0.8-0.2c-0.7-0.1-1.3-0.2-2-0.2
		c-0.7,0-1.4,0.1-2.2,0.2c-0.1,0-0.2,0.1-0.4,0.1c-0.4,0.5-1.1,0.8-1.3,0.9c-3.4,2.3-5.6,5.4-6.9,7.7c0.1,0.2,0.2,0.4,0.3,0.7
		c1.3,2.3,2.1,4.2,2.7,5.8c1.5,4.3,1.4,6.5,4.3,7.4c1.1,0.4,2.3,0.5,3.5,0.5c1.5,0,2.9-0.3,4.2-0.8c2.7-1.1,2.6-2.8,3.9-7.1
		c0.5-1.6,1.2-3.5,2.2-5.9C30.8,16,30.7,15.9,30.6,15.7z"/>
</g>
</svg>
